<svg xmlns="http://www.w3.org/2000/svg" viewBox="0 0 104.52 103.33"><defs><style>.cls-1{fill:#444;}</style></defs><g id="Layer_2" data-name="Layer 2"><g id="Layer_1-2" data-name="Layer 1"><path class="cls-1" d="M99.67,82.33H4.86A4.86,4.86,0,0,1,0,77.48V4.86A4.87,4.87,0,0,1,4.86,0H99.67a4.86,4.86,0,0,1,4.85,4.86V77.48A4.85,4.85,0,0,1,99.67,82.33ZM4.86,3A1.86,1.86,0,0,0,3,4.86V77.48a1.85,1.85,0,0,0,1.86,1.85H99.67a1.85,1.85,0,0,0,1.85-1.85V4.86A1.85,1.85,0,0,0,99.67,3ZM96.31,75.62H8.21a1.5,1.5,0,0,1-1.5-1.5V8.21a1.5,1.5,0,0,1,1.5-1.5h88.1a1.5,1.5,0,0,1,1.5,1.5V74.12A1.5,1.5,0,0,1,96.31,75.62Zm-86.6-3h85.1V9.71H9.71Z"/><path class="cls-1" d="M60.21,94.76H43.9a1.51,1.51,0,0,1-1.5-1.5V80.83a1.51,1.51,0,0,1,1.5-1.5H60.21a1.51,1.51,0,0,1,1.5,1.5V93.26A1.51,1.51,0,0,1,60.21,94.76Zm-14.81-3H58.71V82.33H45.4Z"/><path class="cls-1" d="M78.14,103.33H25.92a1.5,1.5,0,0,1-1.5-1.5A10.08,10.08,0,0,1,34.49,91.76H69.56a10.09,10.09,0,0,1,10.08,10.07A1.5,1.5,0,0,1,78.14,103.33Zm-50.56-3h48.9a7.09,7.09,0,0,0-6.92-5.57H34.49A7.07,7.07,0,0,0,27.58,100.33Z"/><path class="cls-1" d="M52.16,64.68a1.51,1.51,0,0,1-1.46-1.14L45.49,42.12,40.76,53.87a1.53,1.53,0,0,1-1.41.94,1.49,1.49,0,0,1-1.38-1L33.45,41.75l-4.91,15a1.51,1.51,0,0,1-1.43,1h0a1.5,1.5,0,0,1-1.42-1L20.61,41.23l-4.26,8.82A1.5,1.5,0,0,1,15,50.9a1.47,1.47,0,0,1-1.36-.79L7.07,37.94A1.5,1.5,0,1,1,9.7,36.51l5.22,9.6,4.6-9.54a1.51,1.51,0,0,1,2.78.18l4.81,14.69,4.82-14.69a1.52,1.52,0,0,1,1.4-1,1.44,1.44,0,0,1,1.43,1l4.66,12.46,5-12.5a1.5,1.5,0,0,1,1.5-.93,1.48,1.48,0,0,1,1.35,1.14l4.84,19.9,4.73-19.89a1.5,1.5,0,0,1,2.88-.13L64.4,50.93,69.57,31A1.5,1.5,0,0,1,71,29.92h0a1.51,1.51,0,0,1,1.45,1.15l4.45,18.28,4.54-22.44a1.5,1.5,0,0,1,2.84-.32l6.57,14.52,4.1-6a1.5,1.5,0,1,1,2.47,1.7L91.85,45a1.5,1.5,0,0,1-2.61-.23L83.49,32.06l-5,24.49a1.52,1.52,0,0,1-1.44,1.2A1.46,1.46,0,0,1,75.6,56.6L71,37.57,66,56.63a1.5,1.5,0,0,1-1.4,1.12,1.48,1.48,0,0,1-1.47-1l-4.59-14L53.62,63.53a1.5,1.5,0,0,1-1.45,1.15Z"/><path class="cls-1" d="M20.9,38.5a3.79,3.79,0,1,1,3.79-3.79A3.79,3.79,0,0,1,20.9,38.5Zm0-4.58a.79.79,0,1,0,.79.79A.79.79,0,0,0,20.9,33.92Z"/><path class="cls-1" d="M39.17,59.39A3.79,3.79,0,1,1,43,55.6,3.79,3.79,0,0,1,39.17,59.39Zm0-4.58a.79.79,0,1,0,.79.79A.79.79,0,0,0,39.17,54.81Z"/><path class="cls-1" d="M58.21,38.54a4,4,0,1,1,4-4A4,4,0,0,1,58.21,38.54Zm0-5a1,1,0,1,0,1,1A1,1,0,0,0,58.21,33.52Z"/><path class="cls-1" d="M77.15,63.23a4,4,0,1,1,4-4A4,4,0,0,1,77.15,63.23Zm0-5a1,1,0,1,0,1,1A1,1,0,0,0,77.15,58.21Z"/></g></g></svg>