<svg xmlns="http://www.w3.org/2000/svg" viewBox="0 0 104.75 102.59"><defs><style>.cls-1{fill:#363636;}</style></defs><g id="Layer_2" data-name="Layer 2"><g id="Layer_1-2" data-name="Layer 1"><path class="cls-1" d="M26,33.8a7.44,7.44,0,1,1,7.44-7.44A7.45,7.45,0,0,1,26,33.8Zm0-11.88a4.44,4.44,0,1,0,4.44,4.44A4.44,4.44,0,0,0,26,21.92Z"/><path class="cls-1" d="M11,57.84a1.5,1.5,0,0,1-1.49-1.7c1.13-8.26,7-14.25,13.89-14.25,6.27,0,11.84,5.09,13.54,12.38A1.5,1.5,0,0,1,35,56l-9.71-3c-2.34,1.7-6.94,3.28-14,4.82Zm12.4-13c-4.81,0-9,3.87-10.48,9.48,7.7-1.83,10.22-3.36,11-4.14a1.51,1.51,0,0,1,1.49-.35l7.71,2.43C31.24,47.83,27.49,44.89,23.39,44.89Z"/><path class="cls-1" d="M44.07,102.59H2.71a1.5,1.5,0,0,1-1.5-1.5v-12A10.23,10.23,0,0,1,11.43,78.83h7.93a1.5,1.5,0,0,1,1.5,1.5v2.78A2.51,2.51,0,0,0,21.65,85a2.56,2.56,0,0,0,1.88.69,2.69,2.69,0,0,0,2.39-2.75V80.33a1.5,1.5,0,0,1,1.5-1.5h7.93A10.24,10.24,0,0,1,45.57,89.05v12A1.5,1.5,0,0,1,44.07,102.59Zm-39.86-3H42.57V89.05a7.23,7.23,0,0,0-7.22-7.22H28.92v1.06a5.65,5.65,0,0,1-5.24,5.75,5.54,5.54,0,0,1-5.82-5.53V81.83H11.43a7.23,7.23,0,0,0-7.22,7.22Z"/><path class="cls-1" d="M23.39,88.64a5.54,5.54,0,0,1-5.53-5.53V73.64a1.5,1.5,0,0,1,.67-1.25,1.53,1.53,0,0,1,1.41-.13,8.79,8.79,0,0,0,6.9,0,1.53,1.53,0,0,1,1.41.13,1.5,1.5,0,0,1,.67,1.25v9.47A5.54,5.54,0,0,1,23.39,88.64Zm-2.53-13v7.42a2.53,2.53,0,0,0,5.06,0V75.69A11.67,11.67,0,0,1,20.86,75.69Z"/><path class="cls-1" d="M70.17,59.24a1.49,1.49,0,0,1-1.48-1.7c1.12-8.26,7-14.25,13.88-14.25,6.27,0,11.84,5.09,13.55,12.38a1.51,1.51,0,0,1-.44,1.44,1.48,1.48,0,0,1-1.47.33l-9.72-3c-2.33,1.7-6.93,3.29-14,4.82A1.66,1.66,0,0,1,70.17,59.24Zm12.4-13c-4.8,0-9,3.87-10.47,9.48,7.69-1.83,10.21-3.36,11-4.14a1.49,1.49,0,0,1,1.48-.35l7.71,2.43C90.43,49.23,86.68,46.29,82.57,46.29Z"/><path class="cls-1" d="M70.41,65.79H35.19a1.49,1.49,0,0,1-1.2-.6,1.54,1.54,0,0,1-.24-1.33A17.26,17.26,0,0,0,34.47,59a.41.41,0,0,1,0-.11,16.64,16.64,0,0,0-.3-3.12L25.31,53c-2.22,1.62-6.48,3.12-12.95,4.59q-.06.7-.06,1.35a17.31,17.31,0,0,0,.12,2A16,16,0,0,0,13,63.72a1.51,1.51,0,0,1-.32,1.41,1.49,1.49,0,0,1-1.35.49,13.37,13.37,0,0,1,1.11-26.54A19.56,19.56,0,0,1,10,29.65,19.79,19.79,0,0,1,29.77,9.89a19.52,19.52,0,0,1,7.63,1.54A19.75,19.75,0,0,1,75,18.32c.44,0,.87-.06,1.31-.06A17.35,17.35,0,0,1,93.65,35.6a16.78,16.78,0,0,1-.38,3.59,13.38,13.38,0,0,1,2,26,1.52,1.52,0,0,1-1.44-.32,1.5,1.5,0,0,1-.48-1.39,18,18,0,0,0,.3-3.08V60.3a17.5,17.5,0,0,0-.29-3.12l-8.88-2.79C82.28,56,78,57.52,71.54,59q-.06.71-.06,1.35a17.31,17.31,0,0,0,.12,2A16.79,16.79,0,0,0,71.88,64a1.49,1.49,0,0,1-1.47,1.81Zm-33.31-3H68.64s0-.1,0-.15a21.15,21.15,0,0,1-.14-2.31,20,20,0,0,1,.21-2.79,1.49,1.49,0,0,1,1.16-1.26c9.47-2.06,12.39-3.8,13.29-4.65a1.49,1.49,0,0,1,1.48-.35l10.49,3.3a1.5,1.5,0,0,1,1,1.09,20.51,20.51,0,0,1,.54,4.66v.12c0,.3,0,.59,0,.89A10.38,10.38,0,0,0,91.35,42a1.5,1.5,0,0,1-1.42-2A14.33,14.33,0,0,0,76.32,21.26a14.08,14.08,0,0,0-2.51.24,1.52,1.52,0,0,1-1.24-.34A1.46,1.46,0,0,1,72.05,20a1.48,1.48,0,0,1,0-.21A16.76,16.76,0,0,0,39.58,14a1.49,1.49,0,0,1-.86.88,1.53,1.53,0,0,1-1.24-.07,16.58,16.58,0,0,0-7.71-1.89A16.74,16.74,0,0,0,16.34,39.65,1.49,1.49,0,0,1,15.14,42H13.38a10.37,10.37,0,0,0-3.83,20c-.05-.27-.08-.54-.11-.81a21.15,21.15,0,0,1-.14-2.31,21.54,21.54,0,0,1,.2-2.79,1.5,1.5,0,0,1,1.17-1.26c9.46-2.06,12.38-3.8,13.28-4.65a1.51,1.51,0,0,1,1.49-.35l10.48,3.3a1.49,1.49,0,0,1,1,1.09,20.53,20.53,0,0,1,.55,4.66s0,.09,0,.12A19.6,19.6,0,0,1,37.1,62.79Z"/><path class="cls-1" d="M23.39,76A12,12,0,0,1,18.78,75c-4-1.69-7.28-5.6-8.68-10.48a18.84,18.84,0,0,1-.66-3.31,21.15,21.15,0,0,1-.14-2.31,21.54,21.54,0,0,1,.2-2.79,1.5,1.5,0,0,1,1.17-1.26c9.46-2.06,12.38-3.8,13.28-4.65a1.51,1.51,0,0,1,1.49-.35l10.48,3.3a1.49,1.49,0,0,1,1,1.09,20.53,20.53,0,0,1,.55,4.66s0,.09,0,.12a20.22,20.22,0,0,1-.84,5.67A15.71,15.71,0,0,1,28,75,12,12,0,0,1,23.39,76Zm-11-18.39q-.06.7-.06,1.35a17.31,17.31,0,0,0,.12,2A16,16,0,0,0,13,63.72c1.16,4,3.76,7.2,7,8.54a8.79,8.79,0,0,0,6.9,0,12.92,12.92,0,0,0,6.91-8.4A17.26,17.26,0,0,0,34.47,59a.41.41,0,0,1,0-.11,16.64,16.64,0,0,0-.3-3.12L25.31,53C23.09,54.61,18.83,56.11,12.36,57.58Z"/><path class="cls-1" d="M82.57,77.37a12,12,0,0,1-4.6-.94c-4.47-1.87-7.84-6.29-9-11.82-.15-.7-.26-1.35-.33-2a21.15,21.15,0,0,1-.14-2.31,20,20,0,0,1,.21-2.79,1.49,1.49,0,0,1,1.16-1.26c9.47-2.06,12.39-3.8,13.29-4.65a1.49,1.49,0,0,1,1.48-.35l10.49,3.3a1.5,1.5,0,0,1,1,1.09,20.51,20.51,0,0,1,.54,4.66v.12A21.13,21.13,0,0,1,96.32,64c-1,5.73-4.56,10.48-9.14,12.4A12,12,0,0,1,82.57,77.37ZM71.54,59q-.06.71-.06,1.35a17.31,17.31,0,0,0,.12,2A16.79,16.79,0,0,0,71.88,64c1,4.58,3.68,8.19,7.24,9.68a8.79,8.79,0,0,0,6.9,0c3.66-1.53,6.48-5.42,7.34-10.17a18,18,0,0,0,.3-3.08V60.3a17.5,17.5,0,0,0-.29-3.12l-8.88-2.79C82.28,56,78,57.52,71.54,59Z"/><path class="cls-1" d="M103.25,102H61.89a1.5,1.5,0,0,1-1.5-1.5v-10A10.24,10.24,0,0,1,70.61,80.23h7.93a1.5,1.5,0,0,1,1.5,1.5v2.79a2.49,2.49,0,0,0,.79,1.83,2.52,2.52,0,0,0,1.88.69,2.68,2.68,0,0,0,2.39-2.75V81.73a1.5,1.5,0,0,1,1.5-1.5h7.93a10.23,10.23,0,0,1,10.22,10.22v10A1.5,1.5,0,0,1,103.25,102ZM63.39,99h38.36V90.45a7.23,7.23,0,0,0-7.22-7.22H88.1v1.06A5.65,5.65,0,0,1,82.87,90a5.49,5.49,0,0,1-4.1-1.51,5.56,5.56,0,0,1-1.73-4V83.23H70.61a7.23,7.23,0,0,0-7.22,7.22Z"/><path class="cls-1" d="M82.57,90A5.53,5.53,0,0,1,77,84.52V75a1.5,1.5,0,0,1,.67-1.25,1.53,1.53,0,0,1,1.41-.13,8.79,8.79,0,0,0,6.9,0,1.53,1.53,0,0,1,1.41.13A1.5,1.5,0,0,1,88.1,75v9.48A5.53,5.53,0,0,1,82.57,90ZM80,77.09v7.43a2.53,2.53,0,0,0,5.06,0V77.09A11.67,11.67,0,0,1,80,77.09Z"/></g></g></svg>