<svg xmlns="http://www.w3.org/2000/svg" viewBox="0 0 256 256"><defs><style>.cls-1{fill:none;stroke:#fff;stroke-linecap:round;stroke-linejoin:round;stroke-width:8px;}</style></defs><g id="Layer_2" data-name="Layer 2"><g id="Capa_1" data-name="Capa 1"><g id="dogs_and_cats" data-name="dogs and cats"><g id="dog_bath" data-name="dog bath"><path class="cls-1" d="M116,168H16a12,12,0,0,1,0-24H116"/><path class="cls-1" d="M128,244H68c-56,0-56-56-56-56V168"/><line class="cls-1" x1="60" y1="244" x2="52" y2="252"/><path class="cls-1" d="M236,168h4a12,12,0,0,0,0-24H228"/><path class="cls-1" d="M128,244h60c56,0,56-56,56-56V168"/><line class="cls-1" x1="196" y1="244" x2="204" y2="252"/><path class="cls-1" d="M148,72c-4.42,0-12-7.58-12-12a8,8,0,0,1,8-8h8a8,8,0,0,1,8,8C160,64.42,152.42,72,148,72Z"/><path class="cls-1" d="M148,72c0,8.84-8.95,16-20,16s-20-7.16-20-16"/><path class="cls-1" d="M188,72c0,8.84-8.95,16-20,16s-20-7.16-20-16"/><path class="cls-1" d="M164,88v12a16,16,0,0,1-32,0V88"/><path class="cls-1" d="M116,32a14.5,14.5,0,0,1,20,0"/><path class="cls-1" d="M160,32a14.5,14.5,0,0,1,20,0"/><path class="cls-1" d="M100,28,96,44,84.71,35.48a15,15,0,0,1,0-21.82C90.29,7.43,96,4,100,4a8,8,0,0,1,8,8"/><path class="cls-1" d="M196,28l4,16,11.29-8.52a15,15,0,0,0,0-21.82C205.71,7.43,200,4,196,4a8,8,0,0,0-8,8"/><path class="cls-1" d="M180,144a16,16,0,0,1,16-16c8.84,0,12.05,8.1,16,16s8,12,8,24a20,20,0,0,1-40,0v-8"/><path class="cls-1" d="M116,144a16,16,0,0,1,16-16c8.84,0,12.05,8.1,16,16s8,12,8,24a20,20,0,0,1-40,0v-8"/><line class="cls-1" x1="164" y1="144" x2="180" y2="144"/><line class="cls-1" x1="180" y1="168" x2="172" y2="168"/><path class="cls-1" d="M200,44s20,48-20,64"/><path class="cls-1" d="M96,44s-20,48,20,64"/><path class="cls-1" d="M192,100.94s3.66,2.72,4,11.06"/><path class="cls-1" d="M40,144s.47-11.12,16-20c28-16,35-52,35-52"/><path class="cls-1" d="M20,144s-4-20,16-36c0,0-4,24,4,36"/><circle class="cls-1" cx="24" cy="72" r="12"/><circle class="cls-1" cx="48" cy="36" r="8"/><path class="cls-1" d="M188,12s-4-8-12-8H120c-8,0-12,8-12,8"/></g></g></g></g></svg>