<svg xmlns="http://www.w3.org/2000/svg" viewBox="0 0 256 256"><defs><style>.cls-1{fill:none;stroke:#fff;stroke-linecap:round;stroke-linejoin:round;stroke-width:8px;}</style></defs><g id="Layer_2" data-name="Layer 2"><g id="Capa_1" data-name="Capa 1"><g id="dogs_and_cats" data-name="dogs and cats"><g id="house_dog" data-name="house dog"><polyline class="cls-1" points="16 108 16 252 120 252"/><line class="cls-1" x1="16" y1="212" x2="60" y2="212"/><line class="cls-1" x1="16" y1="132" x2="60" y2="132"/><line class="cls-1" x1="16" y1="172" x2="60" y2="172"/><line class="cls-1" x1="240" y1="108" x2="240" y2="180"/><polygon class="cls-1" points="128 4 252 96 252 108 240 108 128 24 16 108 4 108 4 96 128 4"/><line class="cls-1" x1="240" y1="132" x2="196" y2="132"/><line class="cls-1" x1="240" y1="172" x2="196" y2="172"/><path class="cls-1" d="M212,236c4,4,8,16,22,16a18,18,0,0,0,18-18,17.79,17.79,0,0,0-4.14-11.35A15.94,15.94,0,0,0,236,196c-16,0-20,12-24,16H172c-4-4-8-16-24-16a15.94,15.94,0,0,0-11.86,26.65A17.79,17.79,0,0,0,132,234a18,18,0,0,0,18,18c14,0,18-12,22-16Z"/><path class="cls-1" d="M76,252V176a52,52,0,0,1,104,0v20"/><path class="cls-1" d="M128,104c13.21,0,27.21,4,36,8l8-32c-12.12-6.18-27.14-8-44-8s-31.88,1.82-44,8l8,32c8.8-4,22.8-8,36-8Z"/></g></g></g></g></svg>