<svg xmlns="http://www.w3.org/2000/svg" viewBox="0 0 103.41 103.32"><defs><style>.cls-1{fill:#444;}.cls-2{fill:#474747;}</style></defs><g id="Layer_2" data-name="Layer 2"><g id="Layer_1-2" data-name="Layer 1"><path class="cls-1" d="M52.21,69.84a17.77,17.77,0,1,1,12.57-5.2A17.68,17.68,0,0,1,52.21,69.84Zm0-32.53a14.75,14.75,0,1,0,10.45,4.32A14.67,14.67,0,0,0,52.21,37.31Z"/><path class="cls-1" d="M53.91,91.93a1.2,1.2,0,0,1-.38-.05L30.24,85.64a1.5,1.5,0,0,1-1.07-1.81,7.72,7.72,0,0,0-9.38-9.39A1.5,1.5,0,0,1,18,73.38l-6.2-23.16a1.49,1.49,0,0,1,1-1.83A7.72,7.72,0,0,0,16.2,35.48l-.11-.11a1.5,1.5,0,0,1,0-2.14L33.24,16.06a1.43,1.43,0,0,1,1.07-.44,1.48,1.48,0,0,1,1.07.46l.11.12a7.74,7.74,0,0,0,10.93,0,7.72,7.72,0,0,0,2-3.62,1.52,1.52,0,0,1,.69-.93,1.46,1.46,0,0,1,1.15-.16l23.32,6.25a1.49,1.49,0,0,1,1,2,7.77,7.77,0,0,0,1.76,8.19h0a7.72,7.72,0,0,0,7.81,1.89,1.49,1.49,0,0,1,1.17.12,1.46,1.46,0,0,1,.73.93l6.05,22.55A1.54,1.54,0,0,1,92,54.56a1.51,1.51,0,0,1-1,.69,7.58,7.58,0,0,0-3.81,2.08,7.73,7.73,0,0,0,0,10.93l.14.13a1.5,1.5,0,0,1,.48,1.07,1.53,1.53,0,0,1-.44,1.09L70.64,87.3a1.64,1.64,0,0,1-1.08.44,1.51,1.51,0,0,1-1.07-.47l-.12-.13a7.73,7.73,0,0,0-11,0,7.78,7.78,0,0,0-2,3.66,1.47,1.47,0,0,1-.69.94A1.49,1.49,0,0,1,53.91,91.93ZM32.35,83.1l20.57,5.51a10.71,10.71,0,0,1,10-6.76,10.6,10.6,0,0,1,6.65,2.31L84.25,69.44a10.73,10.73,0,0,1,4.62-16.68L83.58,33a10.72,10.72,0,0,1-9.31-3h0a10.77,10.77,0,0,1-2.91-9.78L50.89,14.75a10.51,10.51,0,0,1-2.35,3.57,10.74,10.74,0,0,1-14.19.87L19.2,34.34A10.74,10.74,0,0,1,15,50.78l5.49,20.49a10.8,10.8,0,0,1,8.76,3.07A10.64,10.64,0,0,1,32.35,83.1Z"/><path class="cls-1" d="M10.74,51.67A10.73,10.73,0,1,1,18.16,33.2c.06.06.12.1.16.15a10.74,10.74,0,0,1-4.7,17.93A10.92,10.92,0,0,1,10.74,51.67Zm0-18.44a7.72,7.72,0,1,0,5.47,2.25l-.11-.11h0A7.72,7.72,0,0,0,10.73,33.23Z"/><path class="cls-1" d="M10.61,46.08A5.27,5.27,0,1,1,14.23,37l.08.08A5.25,5.25,0,0,1,12,45.88,5.28,5.28,0,0,1,10.61,46.08Zm0-7.53a2.26,2.26,0,1,0,1.61,3.87,2.28,2.28,0,0,0,0-3.21l0,0A2.26,2.26,0,0,0,10.6,38.55Z"/><path class="cls-1" d="M21.69,87.2a5.27,5.27,0,1,1,3.62-9.08.3.3,0,0,1,.08.08,5.28,5.28,0,0,1,0,7.46A5.34,5.34,0,0,1,23.1,87,5.28,5.28,0,0,1,21.69,87.2Zm0-7.53a2.26,2.26,0,1,0,.61,4.44,2.2,2.2,0,0,0,1-.58,2.27,2.27,0,0,0,0-3.2l0,0A2.26,2.26,0,0,0,21.68,79.67Z"/><path class="cls-1" d="M62.89,97.85a5.27,5.27,0,1,1,3.62-9.08l.07.06a5.29,5.29,0,0,1,0,7.48,5.36,5.36,0,0,1-2.31,1.35A5.26,5.26,0,0,1,62.89,97.85Zm0-7.52a2.26,2.26,0,1,0,1.61.65l0,0A2.29,2.29,0,0,0,62.88,90.33Z"/><path class="cls-1" d="M92.68,68.06A5.27,5.27,0,1,1,96.31,59l.08.07a5.28,5.28,0,0,1-3.71,9Zm0-7.53a2.26,2.26,0,0,0-1.6.66A2.26,2.26,0,0,0,93.29,65a2.24,2.24,0,0,0,1-.57,2.28,2.28,0,0,0,0-3.21l1-1.11-1,1.08A2.24,2.24,0,0,0,92.67,60.53Z"/><path class="cls-1" d="M81.87,27.69a5.28,5.28,0,0,1-3.73-1.54,5.28,5.28,0,0,1,0-7.45,5.29,5.29,0,0,1,7.35-.08.55.55,0,0,1,.11.1,5.26,5.26,0,0,1,0,7.43,5.36,5.36,0,0,1-2.31,1.35A5.26,5.26,0,0,1,81.87,27.69Zm0-7.52a2.29,2.29,0,0,0-1.6.65,2.28,2.28,0,0,0,0,3.21,2.28,2.28,0,0,0,2.21.58,2.21,2.21,0,0,0,1-.58,2.26,2.26,0,0,0,0-3.21l0,0A2.28,2.28,0,0,0,81.86,20.17Z"/><path class="cls-1" d="M41.17,15.78A5.27,5.27,0,1,1,44.79,6.7a.3.3,0,0,1,.08.08,5.27,5.27,0,0,1-3.7,9Zm0-7.53a2.26,2.26,0,0,0-1.6.66,2.29,2.29,0,0,0-.66,1.6,2.25,2.25,0,0,0,.66,1.6,2.28,2.28,0,0,0,2.22.58,2.17,2.17,0,0,0,1-.58,2.27,2.27,0,0,0,0-3.2l0,0A2.24,2.24,0,0,0,41.16,8.25Z"/><path class="cls-1" d="M41,21.46a10.71,10.71,0,0,1-7.59-3.14l-.14-.15a10.8,10.8,0,0,1,.14-15h0A10.73,10.73,0,1,1,41,21.46ZM35.48,5.26a7.77,7.77,0,0,0-.1,10.82l.11.12a7.73,7.73,0,1,0,0-10.94Z"/><path class="cls-1" d="M81.84,33.16a10.74,10.74,0,0,1-7.57-18.32h0A10.73,10.73,0,1,1,85.11,32.65,10.88,10.88,0,0,1,81.84,33.16Zm0-18.47A7.72,7.72,0,0,0,76.39,17h0a7.58,7.58,0,0,0-1.76,2.75A7.71,7.71,0,0,0,84.2,29.79a7.52,7.52,0,0,0,3.13-1.89,7.74,7.74,0,0,0-5.47-13.21ZM75.33,15.9h0Z"/><path class="cls-1" d="M21.68,92.66a10.73,10.73,0,0,1-2.62-21.13h0a10.8,10.8,0,0,1,10.21,2.81,10.73,10.73,0,0,1-7.59,18.32Zm0-18.46a8,8,0,0,0-1.93.24h0a7.8,7.8,0,0,0-3.58,2,7.75,7.75,0,1,0,5.51-2.26ZM19.42,73h0Z"/><path class="cls-1" d="M62.88,103.32A10.75,10.75,0,0,1,55.29,85h0a10.72,10.72,0,0,1,15.18,0,1.29,1.29,0,0,1,.16.17,10.73,10.73,0,0,1-7.75,18.15Zm-5.47-16.2a7.78,7.78,0,0,0-2,3.66,7.73,7.73,0,1,0,13.12-3.51l-.12-.13a7.73,7.73,0,0,0-11,0Z"/><path class="cls-1" d="M92.69,73.55a10.7,10.7,0,0,1-7.4-3l-.2-.18a10.68,10.68,0,1,1,7.6,3.16Zm0-18.49a7.4,7.4,0,0,0-1.68.19h0a7.58,7.58,0,0,0-3.81,2.08,7.73,7.73,0,0,0,0,10.93l.14.13A7.73,7.73,0,1,0,92.7,55.06Zm-2-1.28h0Z"/><path class="cls-1" d="M83.81,61.73a1.31,1.31,0,0,1-.39,0L67.69,57.47a1.5,1.5,0,0,1,.78-2.9l15.72,4.21a1.5,1.5,0,0,1-.38,2.95Z"/><path class="cls-1" d="M36.58,49.08a1.32,1.32,0,0,1-.39-.06L19.33,44.51a1.5,1.5,0,1,1,.77-2.9L37,46.13A1.49,1.49,0,0,1,38,48,1.5,1.5,0,0,1,36.58,49.08Z"/><path class="cls-1" d="M60.49,85.17A1.51,1.51,0,0,1,59,84.05L54.8,68.23a1.52,1.52,0,0,1,1.07-1.84,1.49,1.49,0,0,1,1.83,1.06l4.24,15.83a1.49,1.49,0,0,1-1.06,1.83A1.32,1.32,0,0,1,60.49,85.17Z"/><path class="cls-1" d="M47.83,37.91a1.51,1.51,0,0,1-1.45-1.12L42,20.58a1.5,1.5,0,0,1,2.9-.77L49.28,36a1.49,1.49,0,0,1-1.06,1.83A1.32,1.32,0,0,1,47.83,37.91Z"/><path class="cls-1" d="M63.38,41.73a1.5,1.5,0,0,1-1.06-2.56L74,27.55a1.49,1.49,0,0,1,2.12,0,1.51,1.51,0,0,1,0,2.12L64.44,41.3A1.5,1.5,0,0,1,63.38,41.73Z"/><path class="cls-1" d="M28.21,76.9a1.47,1.47,0,0,1-1.06-.44,1.51,1.51,0,0,1,0-2.12L39.31,62.18a1.5,1.5,0,1,1,2.12,2.12L29.27,76.46A1.45,1.45,0,0,1,28.21,76.9Z"/><path class="cls-2" d="M51.05,60.54H51a1.53,1.53,0,0,1-1.32-.92l-3.52-8.39a1.5,1.5,0,0,1,2.77-1.16l2.31,5.5,5.43-10.09a1.5,1.5,0,1,1,2.64,1.42L52.37,59.75A1.49,1.49,0,0,1,51.05,60.54Z"/></g></g></svg>