<?xml version="1.0" encoding="UTF-8"?>
<svg width="102px" height="104px" viewBox="0 0 102 104" version="1.1" xmlns="http://www.w3.org/2000/svg" xmlns:xlink="http://www.w3.org/1999/xlink">
    <title>WebCoding</title>
    <g id="Page-1" stroke="none" stroke-width="1" fill="none" fill-rule="evenodd">
        <g id="WebCoding" fill="#272727" fill-rule="nonzero">
            <path d="M29.19,18.19 L14.28,18.19 C13.4515729,18.19 12.78,17.5184271 12.78,16.69 L12.78,9.24 C12.7479638,6.82116418 13.6782269,4.4886929 15.3660991,2.75581078 C17.0539713,1.02292865 19.3611587,0.0316174363 21.78,0 C24.1988413,0.0316174363 26.5060287,1.02292865 28.1939009,2.75581078 C29.8817731,4.4886929 30.8120362,6.82116418 30.78,9.24 L30.78,16.7 C30.777995,17.1121815 30.6064647,17.5053756 30.3057004,17.787224 C30.0049361,18.0690723 29.6014435,18.2147361 29.19,18.19 Z M15.78,15.19 L27.69,15.19 L27.69,9.24 C27.7221399,7.61678556 27.1079823,6.04731745 25.9826977,4.87702148 C24.8574131,3.7067255 23.3132267,3.03151582 21.69,3 C20.0667733,3.03151582 18.5225869,3.7067255 17.3973023,4.87702148 C16.2720177,6.04731745 15.6578601,7.61678556 15.69,9.24 L15.78,15.19 Z" id="Shape"></path>
            <path d="M12.61,95.71 L6.61,95.71 C5.78157288,95.71 5.11,95.0384271 5.11,94.21 L5.11,25.74 C5.11549947,23.2570001 7.12700015,21.2454995 9.61,21.24 L29.17,21.24 C29.5702971,21.2420264 29.954075,21.3998416 30.24,21.68 C30.5186563,21.9620492 30.6734075,22.3435287 30.6700551,22.74 L30.6700551,28.74 C30.6700551,29.5684271 29.9984271,30.24 29.17,30.24 L14.17,30.24 L14.17,94.24 C14.16226,94.6432114 13.9924849,95.0263212 13.698978,95.302895 C13.4054711,95.5794688 13.01296,95.7262057 12.61,95.71 Z M8.11,92.71 L11.11,92.71 L11.11,28.71 C11.11,27.8815729 11.7815729,27.21 12.61,27.21 L27.66,27.21 L27.66,24.21 L9.61,24.21 C8.78157288,24.21 8.11,24.8815729 8.11,25.71 L8.11,92.71 Z" id="Shape"></path>
            <path d="M95.39,95.71 L89.39,95.71 C88.5615729,95.71 87.89,95.0384271 87.89,94.21 L87.89,30.21 L77.18,30.21 C76.3515729,30.21 75.68,29.5384271 75.68,28.71 L75.68,22.71 C75.68,21.8815729 76.3515729,21.21 77.18,21.21 L92.39,21.21 C94.8729999,21.2154995 96.8845005,23.2270001 96.89,25.71 L96.89,94.21 C96.89,95.0384271 96.2184271,95.71 95.39,95.71 L95.39,95.71 Z M90.89,92.71 L93.89,92.71 L93.89,25.71 C93.89,24.8815729 93.2184271,24.21 92.39,24.21 L78.68,24.21 L78.68,27.21 L89.39,27.21 C90.2184271,27.21 90.89,27.8815729 90.89,28.71 L90.89,92.71 Z" id="Shape"></path>
            <path d="M77.18,88.13 L29.08,88.13 C28.2515729,88.13 27.58,87.4584271 27.58,86.63 L27.58,57.06 L27.67,16.69 C27.6601634,16.6136489 27.6601634,16.5363511 27.67,16.46 L27.67,9.24 C27.7382307,5.91266143 25.1350631,3.14068774 21.81,3 L21.74,3 C20.9115729,3 20.24,2.32842712 20.24,1.5 C20.2503882,1.08793835 20.4255317,0.697239738 20.7262415,0.41532428 C21.0269513,0.133408823 21.4281255,-0.0161903754 21.84,-2.16927171e-15 L66.55,0.25 C73.3640796,0.413841694 78.7751898,6.03461561 78.68,12.85 L78.68,86.63 C78.68,87.4584271 78.0084271,88.13 77.18,88.13 Z M30.58,85.13 L75.68,85.13 L75.68,12.85 C75.7755019,7.68730668 71.7011614,3.40791179 66.54,3.25 L66.54,3.25 L28.38,3 C29.8839555,4.71505547 30.7121848,6.91892729 30.71,9.2 L30.71,16.65 C30.7149532,16.7299233 30.7149532,16.8100767 30.71,16.89 L30.58,85.13 Z" id="Shape"></path>
            <path d="M96,103.22 L6,103.22 C2.6862915,103.22 0,100.533708 0,97.22 L0,94.22 C0,93.3915729 0.671572875,92.72 1.5,92.72 L100.5,92.72 C101.328427,92.72 102,93.3915729 102,94.22 L102,97.22 C102,100.533708 99.3137085,103.22 96,103.22 Z M3,95.71 L3,97.23 C3,98.8868542 4.34314575,100.23 6,100.23 L96,100.23 C97.6568542,100.23 99,98.8868542 99,97.23 L99,95.71 L3,95.71 Z" id="Shape"></path>
            <path d="M46.67,52 C46.2716432,52.0030215 45.8891173,51.8442372 45.61,51.56 L39.61,45.56 C39.0239407,44.9709386 39.0239407,44.0190614 39.61,43.43 L45.61,37.43 C46.2010195,36.8792823 47.1220194,36.8955322 47.6932436,37.4667564 C48.2644678,38.0379806 48.2807177,38.9589805 47.73,39.55 L42.73,44.55 L47.73,49.5 C48.0133721,49.7799339 48.172861,50.1616751 48.172861,50.56 C48.172861,50.9583249 48.0133721,51.3400661 47.73,51.62 C47.4411106,51.882341 47.0597653,52.0190497 46.67,52 L46.67,52 Z" id="Path"></path>
            <path d="M59.69,52.0001312 C59.2911898,52.0053606 58.907781,51.8462098 58.63,51.56 C58.3466279,51.2800661 58.187139,50.8983249 58.187139,50.5 C58.187139,50.1016751 58.3466279,49.7199339 58.63,49.44 L63.58,44.49 L58.63,39.49 C58.0792823,38.8989805 58.0955322,37.9779806 58.6667564,37.4067564 C59.2379806,36.8355322 60.1589805,36.8192823 60.75,37.37 L66.75,43.37 C67.3360593,43.9590614 67.3360593,44.9109386 66.75,45.5 L60.75,51.5 C60.4805232,51.8054281 60.0970826,51.9862963 59.69,52.0001312 L59.69,52.0001312 Z" id="Path"></path>
            <path d="M50.44,54.89 C50.2946496,54.8890273 50.1500649,54.8688527 50.01,54.83 C49.2337813,54.5935861 48.7862828,53.7827719 49,53 L54.17,35.27 C54.3200515,34.7555376 54.7331673,34.3602062 55.2537307,34.2329234 C55.774294,34.1056406 56.3232189,34.2657437 56.6937307,34.6529234 C57.0642424,35.0401031 57.2000515,35.5955376 57.05,36.11 L51.87,53.81 C51.6872674,54.4484447 51.1040795,54.8888943 50.44,54.89 L50.44,54.89 Z" id="Path"></path>
        </g>
    </g>
</svg>