<?xml version="1.0" encoding="UTF-8"?>
<svg width="104px" height="104px" viewBox="0 0 104 104" version="1.1" xmlns="http://www.w3.org/2000/svg" xmlns:xlink="http://www.w3.org/1999/xlink">
    <title>WebDesign</title>
    <g id="Page-1" stroke="none" stroke-width="1" fill="none" fill-rule="evenodd">
        <g id="WebDesign" fill="#272727" fill-rule="nonzero">
            <path d="M101.66,18.31 L1.5,18.31 C0.671572875,18.31 0,17.6384271 0,16.81 L0,1.5 C0,0.671572875 0.671572875,0 1.5,0 L101.66,0 C102.488427,0 103.16,0.671572875 103.16,1.5 L103.16,16.81 C103.16,17.6384271 102.488427,18.31 101.66,18.31 Z M3,15.31 L100.16,15.31 L100.16,3 L3,3 L3,15.31 Z" id="Shape"></path>
            <path d="M101.66,103.56 L1.5,103.56 C0.671572875,103.56 0,102.888427 0,102.06 L0,16.81 C0,15.9815729 0.671572875,15.31 1.5,15.31 L101.66,15.31 C102.488427,15.31 103.16,15.9815729 103.16,16.81 L103.16,102.06 C103.16,102.888427 102.488427,103.56 101.66,103.56 Z M3,100.56 L100.16,100.56 L100.16,18.31 L3,18.31 L3,100.56 Z" id="Shape"></path>
            <path d="M8.57,11.43 C7.74157288,11.43 7.07,10.7584271 7.07,9.93 C7.06682497,9.48037643 7.2668597,9.0533633 7.6143383,8.76800378 C7.9618169,8.48264426 8.41957562,8.3694583 8.86,8.46 C8.95705725,8.47129026 9.05162823,8.49831054 9.14,8.54 L9.4,8.68 C9.48095099,8.73431449 9.55782257,8.79447485 9.63,8.86 C9.91015841,9.14592501 10.0679736,9.52970293 10.0700001,9.93 C10.0701109,10.330722 9.91197633,10.7152765 9.63,11 C9.48602475,11.1337198 9.32032095,11.2419345 9.14,11.32 C9.0503409,11.3604153 8.95641577,11.3906055 8.86,11.41 C8.76432546,11.427008 8.66710358,11.433713 8.57,11.43 L8.57,11.43 Z" id="Path"></path>
            <path d="M19.25,9.93 C19.25,9.10157288 19.9215729,8.43 20.75,8.43 L20.75,8.43 C21.5784271,8.43 22.25,9.10157288 22.25,9.93 L22.25,9.93 C22.25,10.7584271 21.5784271,11.43 20.75,11.43 L20.75,11.43 C19.9215729,11.43 19.25,10.7584271 19.25,9.93 Z" id="Path"></path>
            <path d="M32.93,11.43 C32.5341548,11.4301597 32.1538627,11.2758903 31.87,11 C31.8013193,10.9279123 31.7378273,10.8510535 31.68,10.77 C31.6267811,10.6886389 31.5831575,10.6013918 31.55,10.51 C31.5095847,10.4203409 31.4793945,10.3264158 31.46,10.23 C31.4506336,10.1335602 31.4506336,10.0364398 31.46,9.94 C31.4584852,9.7403512 31.4993874,9.54265693 31.58,9.36 C31.6152519,9.26952275 31.6587693,9.18248783 31.71,9.1 C31.7679131,9.02215508 31.8314142,8.94862759 31.9,8.88 C32.4961901,8.32117948 33.4238099,8.32117948 34.02,8.88 C34.0885858,8.94862759 34.1520869,9.02215508 34.21,9.1 C34.21,9.19 34.31,9.27 34.35,9.36 C34.39,9.45 34.41,9.55 34.43,9.64 C34.4398276,9.73975855 34.4398276,9.84024145 34.43,9.94 C34.4393664,10.0364398 34.4393664,10.1335602 34.43,10.23 C34.4093006,10.324936 34.38258,10.4184584 34.35,10.51 C34.3093472,10.5997728 34.2625703,10.6866443 34.21,10.77 C34.1457615,10.8517352 34.0755704,10.9286113 34,11 C33.7136609,11.2783164 33.3293024,11.4327782 32.93,11.43 L32.93,11.43 Z" id="Path"></path>
            <path d="M63.71,103.54 L39.56,103.54 C38.7315729,103.54 38.06,102.868427 38.06,102.04 L38.06,52 C38.06,51.1715729 38.7315729,50.5 39.56,50.5 L63.71,50.5 C64.5384271,50.5 65.21,51.1715729 65.21,52 L65.21,102 C65.2207961,102.404709 65.0675399,102.796598 64.7850566,103.086614 C64.5025734,103.37663 64.1148532,103.54 63.71,103.54 L63.71,103.54 Z M41.06,100.54 L62.21,100.54 L62.21,53.54 L41.06,53.54 L41.06,100.54 Z" id="Shape"></path>
            <path d="M57,39.8100368 L46.3,39.8100368 C45.7878042,39.7957349 45.3183247,39.521006 45.0549979,39.0814528 C44.7916711,38.6418997 44.7709319,38.0983403 45,37.64 L50.33,26.82 C50.5827316,26.3081122 51.1041214,25.9840595 51.675,25.9840595 C52.2458786,25.9840595 52.7672684,26.3081122 53.02,26.82 L58.35,37.64 C58.5775521,38.1066815 58.5511559,38.6572291 58.28,39.1 C58.0069952,39.5443712 57.5215209,39.8136577 57,39.8100368 L57,39.8100368 Z M48.74,36.81 L54.59,36.81 L51.66,30.88 L48.74,36.81 Z" id="Shape"></path>
            <path d="M63.71,53.5000048 L39.56,53.5000048 C39.0399703,53.4978775 38.557119,53.2300459 38.28,52.79 C38.0087619,52.3508972 37.9823207,51.8031884 38.21,51.34 L45,37.64 C45.251782,37.1303832 45.7715803,36.8084186 46.34,36.8099942 L57,36.8099942 C57.5684197,36.8084186 58.088218,37.1303832 58.34,37.64 L65.09,51.34 C65.3116764,51.8065868 65.2776738,52.3544074 65,52.79 C64.720985,53.2330505 64.2335851,53.5013093 63.71,53.5000048 L63.71,53.5000048 Z M42,50.5 L61.3,50.5 L56,39.81 L47.24,39.81 L42,50.5 Z" id="Shape"></path>
            <path d="M47.62,103.54 C46.7915729,103.54 46.12,102.868427 46.12,102.04 L46.12,52.0000001 C46.12,51.1715729 46.7915729,50.5000001 47.62,50.5000001 C48.4484271,50.5000001 49.12,51.1715729 49.12,52.0000001 L49.12,102 C49.1307961,102.404709 48.9775399,102.796598 48.6950566,103.086614 C48.4125734,103.37663 48.0248532,103.54 47.62,103.54 L47.62,103.54 Z" id="Path"></path>
            <path d="M55.65,103.54 C54.8215729,103.54 54.15,102.868427 54.15,102.04 L54.15,52 C54.15,51.1715729 54.8215729,50.5 55.65,50.5 C56.4784271,50.5 57.15,51.1715729 57.15,52 L57.15,102 C57.1607961,102.404709 57.0075399,102.796598 56.7250566,103.086614 C56.4425734,103.37663 56.0548532,103.54 55.65,103.54 L55.65,103.54 Z" id="Path"></path>
        </g>
    </g>
</svg>