<?xml version="1.0" encoding="UTF-8"?>
<svg width="106px" height="104px" viewBox="0 0 106 104" version="1.1" xmlns="http://www.w3.org/2000/svg" xmlns:xlink="http://www.w3.org/1999/xlink">
    <title>WebHosting</title>
    <g id="Page-1" stroke="none" stroke-width="1" fill="none" fill-rule="evenodd">
        <g id="WebHosting" fill="#272727" fill-rule="nonzero">
            <path d="M92.32,66.7904771 L14.38,66.7904771 C7.14746478,66.8505053 1.17811478,61.1484035 0.907514835,53.920679 C0.636914889,46.6929544 6.16318776,40.5604662 13.38,40.08 C11.8053853,37.1871769 10.9867466,33.9435788 11,30.65 C11.0165334,19.7398056 19.8597987,10.9010135 30.77,10.89 C33.3909289,10.8858912 35.9858454,11.4096358 38.4,12.43 C42.1845649,4.26307716 51.0146311,-0.309398284 59.8684074,1.31300912 C68.7221836,2.93541653 75.3571905,10.3417844 76,19.32 C76.45,19.32 76.88,19.26 77.32,19.26 C86.890426,19.2710306 94.6444903,27.0295692 94.65,36.6 C94.6533341,37.8035724 94.5259201,39.0039462 94.27,40.18 C101.192885,41.2254304 106.139236,47.4311247 105.614495,54.4128087 C105.089754,61.3944928 99.2713759,66.7904771 92.27,66.7904771 L92.32,66.7904771 Z M14.38,43 C10.5965603,42.8825251 7.0491412,44.8338938 5.12269407,48.0922703 C3.19624695,51.3506469 3.19624695,55.3993531 5.12269407,58.6577297 C7.0491412,61.9161062 10.5965603,63.8674749 14.38,63.75 L92.32,63.75 C97.9245911,63.5759788 102.377859,58.9822921 102.377859,53.375 C102.377859,47.7677079 97.9245911,43.1740212 92.32,43 C91.832027,43.0018837 91.3736355,42.7662819 91.0911351,42.3683941 C90.8086347,41.9705062 90.7373375,41.4600675 90.9,41 C92.307707,36.6478583 91.5531501,31.885173 88.8691191,28.1812893 C86.1850882,24.4774056 81.8941091,22.2773999 77.32,22.26 C76.4778394,22.2647731 75.6378053,22.3450951 74.81,22.5 C74.3699749,22.5725979 73.9202678,22.4482887 73.58,22.16 C73.2185225,21.883138 73.0046031,21.4552992 73,21 C73.0049725,20.9300883 73.0049725,20.8599117 73,20.79 C72.9393272,12.7229535 67.1369363,5.84519632 59.195319,4.42687539 C51.2537016,3.00855447 43.4293009,7.4526558 40.58,15 C40.4328977,15.4033541 40.1189533,15.7236501 39.7186262,15.8788008 C39.318299,16.0339515 38.8705024,16.0088758 38.49,15.81 C31.5700878,12.2182649 23.086798,13.879239 18.0324003,19.8154677 C12.9780027,25.7516964 12.6908804,34.3912914 17.34,40.65 C17.6782544,41.1015554 17.7324485,41.7054328 17.48,42.21 C17.224628,42.7163414 16.7070863,43.0369083 16.14,43.04 L14.38,43 Z" id="Shape"></path>
            <path d="M29.41,35.53 C25.3010015,35.53 21.97,32.1989985 21.97,28.09 C21.97,23.9810015 25.3010015,20.65 29.41,20.65 C33.5189985,20.65 36.85,23.9810015 36.85,28.09 C36.85,30.0632107 36.0661451,31.9556038 34.6708745,33.3508745 C33.2756038,34.7461451 31.3832107,35.53 29.41,35.53 Z M29.41,23.65 C26.9578557,23.65 24.97,25.6378557 24.97,28.09 C24.97,30.5421443 26.9578557,32.53 29.41,32.53 C31.8621443,32.53 33.85,30.5421443 33.85,28.09 C33.85,25.6378557 31.8621443,23.65 29.41,23.65 Z" id="Shape"></path>
            <path d="M53.54,53.46 L53.48,53.46 C52.8623737,53.4432232 52.3201573,53.0445347 52.12,52.46 L49.17,43.88 C48.9913672,43.3726829 49.0969542,42.808603 49.4469873,42.4002439 C49.7970204,41.9918848 50.3383214,41.8012859 50.8669873,41.9002439 C51.3956532,41.999202 51.8313672,42.3726829 52.01,42.88 L53.71,47.88 L58,38.21 C58.2161457,37.7187598 58.677946,37.3801475 59.2114454,37.321715 C59.7449447,37.2632826 60.2690918,37.4939073 60.5864454,37.926715 C60.903799,38.3595228 60.9661457,38.9287598 60.75,39.42 L54.95,52.57 C54.703366,53.1246271 54.1467827,53.4759456 53.54,53.46 L53.54,53.46 Z" id="Path"></path>
            <path d="M53.7,61.3 C47.4003376,61.4512294 41.5133977,58.176859 38.3191,52.7450013 C35.1248022,47.3131435 35.1248022,40.5768565 38.3191,35.1449987 C41.5133977,29.713141 47.4003376,26.4387706 53.7,26.59 L53.7,26.59 C63.1226329,26.8161993 70.6433767,34.5196524 70.6433767,43.945 C70.6433767,53.3703476 63.1226329,61.0738007 53.7,61.3 L53.7,61.3 Z M53.7,29.5899965 C45.7744112,29.5845288 39.3429527,36.0011398 39.3300866,43.9267201 C39.3172591,51.8523004 45.7278822,58.2897275 53.6534471,58.3099976 C61.579012,58.3301722 68.022402,51.9255427 68.0500558,44 C68.060622,40.1853764 66.5540799,36.5230603 63.8623564,33.8200822 C61.170633,31.1171042 57.5146347,29.5952944 53.7,29.5899965 Z" id="Shape"></path>
            <path d="M95.47,103.33 C90.2122535,103.324474 85.9544867,99.0577501 85.9600051,93.8000035 C85.9655343,88.542257 90.2322569,84.2844886 95.4900035,84.2900051 C100.74775,84.2955324 105.00552,88.5622534 105.000005,93.82 C104.988971,99.0754615 100.725473,103.33 95.47,103.33 L95.47,103.33 Z M95.47,87.33 C92.8310961,87.3340753 90.4548669,88.9284504 89.4506312,91.3688071 C88.4463955,93.8091638 89.0122054,96.6142229 90.8839183,98.4744705 C92.7556312,100.334718 95.5641139,100.883282 97.9982542,99.864071 C100.432394,98.8448599 102.012139,96.4588791 102.000069,93.82 C101.994483,90.2174864 99.0725178,87.3 95.47,87.3 L95.47,87.33 Z" id="Shape"></path>
            <path d="M87.45,95 L72.78,95 C71.9515729,95 71.28,94.3284271 71.28,93.5 L71.28,65.75 C71.28,64.9215729 71.9515729,64.25 72.78,64.25 C73.6084271,64.25 74.28,64.9215729 74.28,65.75 L74.28,92 L87.45,92 C88.2784271,92 88.95,92.6715729 88.95,93.5 C88.95,94.3284271 88.2784271,95 87.45,95 Z" id="Path"></path>
            <path d="M11.75,103.33 C7.89860987,103.33 4.42664145,101.009441 2.95371419,97.4508328 C1.48078693,93.8922248 2.29711224,89.7967196 5.02188702,87.074807 C7.74666179,84.3528944 11.8430226,83.5408738 15.4000807,85.0175402 C18.9571388,86.4942067 21.2740456,89.968612 21.2700053,93.82 C21.2589817,99.0715604 17.0015691,103.324501 11.75,103.33 Z M11.75,87.33 C9.11290616,87.33 6.73547757,88.918547 5.72630545,91.354904 C4.71713333,93.791261 5.27495685,96.5956293 7.13966379,98.4603362 C9.00437072,100.325043 11.808739,100.882867 14.245096,99.8736946 C16.681453,98.8645224 18.2700307,96.4870938 18.2700307,93.85 C18.2753117,92.1164051 17.5910497,90.4518486 16.3680242,89.2231957 C15.1449987,87.9945428 13.483601,87.3026467 11.75,87.3 L11.75,87.33 Z" id="Shape"></path>
            <path d="M53.7,103.660005 C49.848612,103.664046 46.3742067,101.347139 44.8975402,97.7900807 C43.4208738,94.2330226 44.2328944,90.1366618 46.954807,87.411887 C49.6767196,84.6871122 53.7722248,83.8707869 57.3308328,85.3437142 C60.8894409,86.8166415 63.21,90.2886099 63.21,94.14 C63.204501,99.3915691 58.9515604,103.648982 53.7,103.660005 L53.7,103.660005 Z M53.7,87.66 C51.0610905,87.6559557 48.6799629,89.2430185 47.6682268,91.6802812 C46.6564908,94.117544 47.2136785,96.9243356 49.0796714,98.7903286 C50.9456644,100.656322 53.752456,101.213509 56.1897188,100.201773 C58.6269815,99.1900371 60.2140443,96.8089095 60.2100307,94.17 C60.2153117,92.4390573 59.5321033,90.7770443 58.3109532,89.5502668 C57.089803,88.3234892 55.4309488,87.6326467 53.7,87.63 L53.7,87.66 Z" id="Shape"></path>
            <path d="M34.44,95 L19.77,95 C18.9415729,95 18.27,94.3284271 18.27,93.5 C18.27,92.6715729 18.9415729,92 19.77,92 L32.94,92 L32.94,65.7500001 C32.94,64.9215729 33.6115729,64.2500001 34.44,64.2500001 C35.2684271,64.2500001 35.9401335,64.9215729 35.9401335,65.7500001 L35.9401335,93.48 C35.9453509,93.8812787 35.789681,94.2679677 35.5077943,94.5536128 C35.2259077,94.8392579 34.8413143,95 34.44,95 Z" id="Path"></path>
            <path d="M53.7,87.63 C52.8715729,87.63 52.2,86.9584271 52.2,86.13 L52.2,65.29 C52.2,64.4615729 52.8715729,63.79 53.7,63.79 C54.5284271,63.79 55.2,64.4615729 55.2,65.29 L55.2,86.13 C55.1945466,86.9561577 54.5261577,87.6245466 53.7,87.63 L53.7,87.63 Z" id="Path"></path>
        </g>
    </g>
</svg>